<svg height="511pt" viewBox="-10 0 511 511.99954" width="511pt" xmlns="http://www.w3.org/2000/svg"><path d="m490.5 267c0 135.308594-109.691406 245-245 245s-245-109.691406-245-245 109.691406-245 245-245 245 109.691406 245 245zm0 0" fill="#ff5252"/><path d="m448.386719 404.371094c-10.3125-18.40625-23.171875-27.546875-31.660157-34.332032-22.011718-17.585937-76.664062-24.578124-93.152343-20.378906-6.804688 1.921875-14.136719-.679687-18.0625-6.5625-1.507813-2.257812-2.632813-4.242187-3.480469-6.007812-4.519531 7.082031-10.550781 13.15625-17.796875 17.691406l-16.203125 10.136719c-13.316406 8.332031-30.214844 8.332031-43.527344 0l-16.214844-10.140625c-7.242187-4.535156-13.269531-10.605469-17.789062-17.6875-.847656 1.765625-1.972656 3.753906-3.476562 6.007812-3.925782 5.882813-11.261719 8.484375-18.066407 6.5625-16.484375-4.199218-71.140625 2.792969-93.152343 20.378906-8.679688 6.933594-21.921876 16.328126-32.339844 35.5625 41.839844 60.871094 110.464844 101.894532 188.878906 106.046876.320312.015624.640625.03125.960938.046874 1.746093.085938 3.496093.152344 5.25.199219.535156.015625 1.070312.027344 1.605468.035157 1.644532.035156 3.289063.0625 4.941406.066406.167969 0 .332032.003906.5.003906 84.355469-.035156 158.738282-42.703125 202.785157-107.628906zm0 0" fill="#f7c696"/><path d="m301.425781 337.984375c-4.449219 6.695313-10.257812 12.457031-17.191406 16.796875l-16.207031 10.136719c-13.3125 8.332031-30.210938 8.332031-43.523438 0l-16.214844-10.140625c-7.242187-4.535156-13.269531-10.605469-17.789062-17.6875-.039062.078125-.082031.164062-.121094.242187v106.007813h111.046875zm0 0" fill="#f2ba88"/><path d="m238.664062 414.921875v-37.351563c0-2.640624.886719-4.945312 2.320313-6.753906-5.75-.746094-11.378906-2.703125-16.480469-5.894531l-16.214844-10.144531c-7.242187-4.53125-13.269531-10.605469-17.789062-17.683594-.039062.078125-.082031.160156-.121094.238281v106.007813h59.3125c-6.847656-7.492188-11.027344-17.46875-11.027344-28.417969zm0 0" fill="#e5a876"/><path d="m197.980469 482.875c-9.484375 2.539062-19.113281-3.382812-21.164063-12.933594-2.613281-12.191406-13.867187-20.59375-26.332031-20.59375h-5.792969c.210938 11.269532-.492187 25.011719-3.386718 39.4375 26.152343 12.308594 54.824218 20.136719 85.042968 22.472656.722656.054688 1.445313.097657 2.167969.144532 1.292969.089844 2.582031.179687 3.878906.246094 1.980469.101562 3.964844.183593 5.953125.238281.167969.007812.332032.015625.496094.019531 2.257812.0625 4.523438.089844 6.796875.09375.085937 0 .171875-.003906.261719-.003906v-45.015625h-35.375c-.390625 7.308593-5.222656 13.933593-12.546875 15.894531zm0 0" fill="#bc4c2e"/><path d="m341.320312 449.347656c-12.46875 0-23.71875 8.402344-26.332031 20.59375-2.050781 9.550782-11.679687 15.472656-21.164062 12.933594-7.324219-1.960938-12.15625-8.585938-12.546875-15.894531h-35.375v45.015625c.945312-.003906 1.882812-.027344 2.828125-.039063 1.082031-.011719 2.167969-.015625 3.246093-.042969 35.164063-.914062 68.476563-9.246093 98.449219-23.46875-2.835937-14.304687-3.523437-27.917968-3.3125-39.097656zm0 0" fill="#cc523a"/><path d="m287.433594 508.410156c-15.835938-2.613281-30.867188-11.015625-41.53125-25.203125v28.789063c14.160156-.023438 28.03125-1.257813 41.53125-3.585938zm0 0" fill="#bc4c2e"/><path d="m203.96875 508.476562c7.230469 1.234376 14.570312 2.160157 22.003906 2.746094.613282.050782 1.226563.09375 1.839844.136719 1.183594.082031 2.367188.15625 3.550781.222656.921875.054688 1.84375.101563 2.765625.144531.964844.046876 1.933594.078126 2.898438.109376.976562.035156 1.949218.070312 2.925781.09375 1.414063.03125 2.835937.046874 4.253906.054687.472657 0 .945313.011719 1.417969.011719h.265625v-28.789063c-10.75 14.304688-25.9375 22.730469-41.921875 25.269531zm0 0" fill="#a0391e"/><path d="m357.574219 341.445312h-32.613281v83.753907c0 9.761719 7.914062 17.679687 17.679687 17.679687l73.394531.003906c14.273438-13.84375 26.867188-29.40625 37.445313-46.355468-19.265625-32.941406-54.992188-55.082032-95.90625-55.082032zm0 0" fill="#84260d"/><path d="m392.636719 442.878906c-9.761719 0-17.675781-7.917968-17.675781-17.679687v-51.140625c0-11.679688 6.144531-21.921875 15.375-27.683594-10.359376-3.195312-21.355469-4.929688-32.761719-4.929688h-32.617188v83.753907c0 9.761719 7.914063 17.679687 17.679688 17.679687l50 .003906s0 0 0-.003906zm0 0" fill="#661409"/><path d="m342.25 441.179688c-8.925781 0-16.164062-7.238282-16.164062-16.167969v-83.566407h-28.582032v125.355469l89.8125.007813c10.84375-7.710938 21.023438-16.292969 30.457032-25.625zm0 0" fill="#dad9dd"/><path d="m375.933594 453.992188c0-5.878907 3.714844-10.875 8.921875-12.808594l-42.605469-.003906c-8.925781 0-16.164062-7.238282-16.164062-16.167969v-83.566407h-28.582032v125.355469l87.367188.007813c-5.214844-1.929688-8.9375-6.929688-8.9375-12.816406zm0 0" fill="#bfbfbf"/><path d="m37.308594 396.183594c10.621094 17.085937 23.285156 32.765625 37.65625 46.699218l72.988281-.003906c9.765625 0 17.679687-7.917968 17.679687-17.679687v-83.753907h-32.613281c-40.777343 0-76.402343 21.984376-95.710937 54.738282zm0 0" fill="#84260d"/><path d="m97.953125 442.878906c9.765625 0 17.679687-7.917968 17.679687-17.679687v-51.140625c0-11.679688-6.144531-21.921875-15.375-27.683594 10.355469-3.195312 21.355469-4.929688 32.761719-4.929688h32.613281v83.753907c0 9.761719-7.914062 17.679687-17.675781 17.679687l-50 .003906c-.003906 0 0 0 0-.003906zm0 0" fill="#661409"/><path d="m164.507812 425.011719c0 8.929687-7.238281 16.167969-16.164062 16.167969l-75.117188.003906c9.433594 9.332031 19.613282 17.914062 30.460938 25.625l89.398438-.007813v-125.355469h-28.578126zm0 0" fill="#dad9dd"/><path d="m114.660156 453.992188c0-5.878907-3.714844-10.875-8.921875-12.808594l42.601563-.003906c8.929687 0 16.167968-7.238282 16.167968-16.167969v-83.566407h28.578126v125.355469l-87.363282.007813c5.214844-1.929688 8.9375-6.929688 8.9375-12.816406zm0 0" fill="#bfbfbf"/><path d="m167.84375 288.289062c-1.824219-4.058593-3.324219-8.242187-4.492188-12.507812-1.785156.363281-3.636718.554688-5.53125.554688-7.003906 0-13.398437-2.585938-18.300781-6.851563v2.550781c0 21.5625 16.851563 42.542969 38.101563 43.789063-3.296875-9.171875-6.75-20.796875-9.777344-27.535157zm0 0" fill="#ff7b22"/><path d="m335.96875 276.332031c-1.898438 0-3.757812-.191406-5.550781-.550781-1.183594 4.324219-2.703125 8.566406-4.550781 12.6875-3.007813 6.703125-6.429688 18.265625-9.699219 27.355469 21.25-1.246094 38.101562-22.226563 38.101562-43.789063v-2.550781c-4.902343 4.261719-11.296875 6.847656-18.300781 6.847656zm0 0" fill="#ffcb37"/><path d="m335.609375 223.136719c-1.5 0-2.96875.117187-4.40625.34375l1.734375 26.707031c.632812 9.769531-.378906 19.535156-2.949219 28.917969 1.816407.363281 3.695313.558593 5.621094.558593 15.609375 0 28.265625-12.652343 28.265625-28.261718 0-15.613282-12.65625-28.265625-28.265625-28.265625zm0 0" fill="#f2ba88"/><path d="m160.894531 250.207031 1.730469-26.714843c-1.4375-.226563-2.910156-.34375-4.410156-.34375-15.628906 0-28.300782 12.671874-28.300782 28.300781 0 15.628906 12.671876 28.296875 28.300782 28.296875 1.921875 0 3.796875-.195313 5.609375-.558594-2.574219-9.398438-3.566407-19.195312-2.929688-28.980469zm0 0" fill="#f2ba88"/><path d="m335.609375 254.914062c-.847656 0-1.683594-.042968-2.511719-.117187.101563 8.222656-.945312 16.402344-3.109375 24.304687 1.820313.367188 3.699219.5625 5.621094.5625 15.613281 0 28.265625-12.65625 28.265625-28.265624 0-4.4375-1.027344-8.636719-2.847656-12.371094-4.589844 9.40625-14.246094 15.886718-25.417969 15.886718zm0 0" fill="#e5a876"/><path d="m160.730469 254.878906c-.832031.074219-1.667969.117188-2.515625.117188-11.191406 0-20.863282-6.496094-25.453125-15.925782-1.824219 3.738282-2.847657 7.9375-2.847657 12.375 0 15.628907 12.671876 28.300782 28.300782 28.300782 1.921875 0 3.796875-.195313 5.609375-.558594-2.164063-7.902344-3.195313-16.085938-3.09375-24.308594zm0 0" fill="#e5a876"/><path d="m331.566406 223.414062c-37.664062-15.425781-22.421875-47.304687-47.367187-44.324218-19.105469 2.28125-30.222657-6.472656-34.8125-11.332032-1.359375-1.4375-3.625-1.4375-4.980469 0-4.59375 4.859376-15.710938 13.613282-34.816406 11.332032-24.945313-2.980469-9.699219 28.898437-47.367188 44.324218l-1.761718 27.152344c-.910157 14.09375 1.59375 28.207032 7.378906 41.085938 5.164062 11.480468 11.570312 27.390625 16.316406 44.703125 3.816406 13.902343 12.609375 25.914062 24.832031 33.5625l16.179688 10.125c13.289062 8.316406 30.160156 8.316406 43.449219 0l16.175781-10.121094c12.226562-7.648437 21.027343-19.667969 24.839843-33.578125 4.722657-17.214844 11.085938-33.046875 16.234376-44.515625 5.804687-12.9375 8.378906-27.085937 7.460937-41.238281zm0 0" fill="#f7c696"/><path d="m254.035156 376.28125-16.183594-10.125c-12.195312-7.632812-21.003906-19.601562-24.804687-33.476562-4.75-17.34375-11.167969-33.289063-16.339844-44.789063-5.789062-12.878906-8.292969-26.992187-7.378906-41.085937l1.058594-42.96875c.117187-4.820313.894531-9.535157 2.238281-14.066407-4.449219 10.011719-8.398438 24.636719-30.398438 33.644531l-1.761718 27.152344c-.914063 14.09375 1.589844 28.207032 7.378906 41.085938 5.160156 11.480468 11.566406 27.390625 16.316406 44.703125 3.8125 13.902343 12.609375 25.914062 24.828125 33.5625l16.183594 10.125c12.527344 7.839843 28.230469 8.28125 41.121094 1.34375-4.269531-1.015625-8.414063-2.703125-12.257813-5.105469zm0 0" fill="#f2ba88"/><path d="m271.5625 262.617188c-4.523438-1.875-6.667969-7.0625-4.789062-11.582032 3.976562-9.589844 14.277343-15.226562 24.5-13.40625l9.265624 1.652344c4.816407.859375 8.027344 5.460938 7.167969 10.277344-.859375 4.820312-5.460937 8.03125-10.277343 7.171875l-9.265626-1.652344c-2.128906-.382813-4.191406.75-5.019531 2.746094-1.882812 4.535156-7.074219 6.660156-11.582031 4.792969zm0 0" fill="#84260d"/><path d="m208.992188 257.828125c-.828126-1.996094-2.898438-3.121094-5.023438-2.75l-9.261719 1.652344c-4.8125.859375-9.421875-2.351563-10.28125-7.167969-.859375-4.820312 2.351563-9.421875 7.171875-10.28125l9.261719-1.652344c10.214844-1.820312 20.527344 3.820313 24.503906 13.40625 1.875 4.519532-.269531 9.707032-4.789062 11.582032-4.542969 1.882812-9.714844-.289063-11.582031-4.789063zm0 0" fill="#84260d"/><path d="m222.378906 336.367188c-3.113281 0-6.070312-1.847657-7.332031-4.90625-1.671875-4.046876.253906-8.683594 4.300781-10.355469l14.144532-5.84375c1.699218-.703125 3.589843-.792969 5.34375-.253907l9.554687 2.917969c4.191406 1.28125 6.546875 5.714844 5.265625 9.902344-1.277344 4.1875-5.710938 6.542969-9.902344 5.269531l-6.835937-2.089844-11.515625 4.753907c-.988282.410156-2.011719.605469-3.023438.605469zm0 0" fill="#f2ba88"/><path d="m269.769531 336.367188c-1.007812 0-2.035156-.195313-3.027343-.605469l-11.511719-4.753907-6.835938 2.089844c-4.191406 1.273438-8.625-1.078125-9.90625-5.269531-1.28125-4.1875 1.078125-8.621094 5.265625-9.902344l9.558594-2.917969c1.757812-.539062 3.644531-.449218 5.34375.253907l14.144531 5.84375c4.046875 1.671875 5.972657 6.308593 4.300781 10.355469-1.261718 3.058593-4.21875 4.90625-7.332031 4.90625zm0 0" fill="#f2ba88"/><path d="m330.417969 279.140625c-10.03125 0-18.308594 7.792969-18.972657 17.804687-1.039062 15.597657-4.339843 37.296876-14.378906 47.335938-11.789062 11.789062-27.9375 3.734375-36.3125-1.929688-4.089844-2.765624-8.90625-4.230468-13.839844-4.230468h-.027343c-4.941407 0-9.761719 1.46875-13.855469 4.234375-8.378906 5.664062-24.519531 13.714843-36.308594 1.925781-10.039062-10.039062-13.335937-31.738281-14.375-47.335938-.667968-10.011718-8.941406-17.804687-18.976562-17.804687 0 0-10.554688 29.851563 0 52.257813 9.640625 20.46875-21.527344 67.296874 57.890625 116.585937 15.707031 9.746094 35.558593 9.746094 51.265625 0 79.421875-49.289063 48.25-96.117187 57.890625-116.585937 10.554687-22.40625 0-52.257813 0-52.257813zm0 0" fill="#fcac1f"/><path d="m220.265625 386.28125c-18.660156-18.660156 0-37.488281 0-37.488281-7.648437 2.484375-16.394531 2.636719-23.542969-4.511719-10.039062-10.039062-13.335937-31.738281-14.375-47.335938-.667968-10.011718-8.941406-17.804687-18.976562-17.804687 0 0-10.554688 29.851563 0 52.257813 9.640625 20.46875-21.527344 67.296874 57.890625 116.585937 10.328125 6.410156 22.445312 8.574219 34.003906 6.554687-32.683594-22.328124-16.351563-49.609374-35-68.257812zm0 0" fill="#ff941f"/><path d="m246.894531 301.832031v6.519531c0 7.804688 5.425781 16.800782 13.050781 18.484376l4.117188.90625c17.011719 3.757812 31.011719 15.78125 37.292969 32.03125 1.859375 4.816406 9.023437 3.390624 8.898437-1.773438l-.351562-16.554688c-.425782-17.394531-12.613282-36.757812-29.582032-40.605468l-23.050781-6.769532c-5.183593-1.523437-10.375 2.359376-10.375 7.761719zm0 0" fill="#fcac1f"/><path d="m246.894531 301.832031v6.519531c0 7.804688-5.425781 16.800782-13.046875 18.484376l-4.121094.90625c-17.011718 3.757812-31.011718 15.78125-37.289062 32.03125-1.863281 4.816406-9.027344 3.390624-8.902344-1.773438l.351563-16.554688c.429687-17.394531 12.613281-36.757812 29.582031-40.605468l23.054688-6.769532c5.179687-1.523437 10.371093 2.359376 10.371093 7.761719zm0 0" fill="#ff941f"/><path d="m197.320312 317.992188c0-4.652344 1.863282-8.863282 4.875-11.945313-10.855468 7.816406-17.984374 22.171875-18.308593 35.398437l-.351563 16.554688c-.125 5.164062 7.039063 6.589844 8.898438 1.773438 3.988281-10.316407 11.089844-18.914063 20.09375-24.789063-8.550782-.945313-15.207032-8.1875-15.207032-16.992187zm0 0" fill="#ff7b22"/><path d="m274.953125 322.859375c0-8.441406 6.84375-15.28125 15.28125-15.28125 1.378906 0 2.707031.199219 3.980469.539063-4.066406-3.519532-8.757813-6.109376-13.894532-7.277344l-23.050781-6.769532c-5.183593-1.523437-10.375 2.363282-10.375 7.761719v6.519531c0 7.804688 5.429688 16.800782 13.050781 18.484376l4.117188.90625c5.734375 1.265624 11.117188 3.492187 15.984375 6.484374-3.121094-2.800781-5.09375-6.847656-5.09375-11.367187zm0 0" fill="#ff941f"/><path d="m213.707031 455.058594c-6.476562-11.222656-20.828125-15.066406-32.050781-8.589844-11.222656 6.480469-15.066406 20.832031-8.585938 32.054688 6.476563 11.222656 20.828126 15.066406 32.050782 8.585937s15.066406-20.828125 8.585937-32.050781zm0 0" fill="#ebeaec"/><path d="m193.40625 443.355469c-3.992188-.003907-8.039062.988281-11.742188 3.125-11.222656 6.480469-15.070312 20.828125-8.589843 32.054687 6.480469 11.222656 20.832031 15.066406 32.050781 8.585938 3.707031-2.136719 6.589844-5.148438 8.578125-8.605469-18.046875-.027344-29.316406-19.488281-20.296875-35.160156zm0 0" fill="#dad9dd"/><path d="m318.722656 455.058594c-6.480468-11.222656-20.832031-15.070313-32.054687-8.589844-11.222657 6.480469-15.066407 20.828125-8.585938 32.050781 6.476563 11.222657 20.828125 15.070313 32.050781 8.589844 11.222657-6.480469 15.066407-20.828125 8.589844-32.050781zm0 0" fill="#ebeaec"/><path d="m298.410156 466.800781c-4.339844-7.515625-4.03125-16.425781.007813-23.445312-3.988281-.003907-8.035157.988281-11.742188 3.125-11.222656 6.480469-15.066406 20.828125-8.585937 32.054687 6.476562 11.222656 20.828125 15.066406 32.050781 8.585938 3.707031-2.136719 6.585937-5.148438 8.578125-8.605469-8.097656-.011719-15.96875-4.195313-20.308594-11.714844zm0 0" fill="#dad9dd"/><path d="m221.875 294.496094c.796875 4.4375 5.042969 7.402344 9.480469 6.597656l4.132812-.742188 6.480469 3.761719c.011719.003907.023438.007813.035156.015625 2.46875 1.410156 5.519532 1.492188 8.128906-.003906.011719-.003906.019532-.007812.03125-.011719l6.484376-3.761719 4.128906.742188c4.433594.800781 8.683594-2.160156 9.476562-6.597656.800782-4.4375-2.15625-8.683594-6.59375-9.480469l-7.078125-1.269531c-1.902343-.339844-3.867187.003906-5.539062.972656l-4.976563 2.886719-4.976562-2.886719c-1.675782-.96875-3.636719-1.3125-5.539063-.972656l-7.078125 1.269531c-4.4375.796875-7.390625 5.039063-6.597656 9.480469zm0 0" fill="#f2ba88"/><path d="m351.398438 140.382812-28.308594-46.425781c-.617188-.597656-1.238282-1.191406-1.867188-1.773437-19.886718-18.484375-46.164062-29.207032-74.328125-29.207032-28.503906 0-54.738281 10.996094-74.328125 29.207032-.628906.582031-1.253906 1.175781-1.867187 1.773437l-28.308594 46.425781c-6.429687 21.140626-4.285156 37.878907-4.714844 46.171876h218.4375c-.429687-9.632813 1.722657-24.996094-4.714843-46.171876zm0 0" fill="#bc4c2e"/><path d="m172.566406 92.179688c-.628906.585937-1.253906 1.179687-1.867187 1.777343l-28.308594 46.425781c-6.429687 21.140626-4.285156 37.875-4.714844 46.171876h52.703125v-38.308594c0-35.527344 19.464844-68.199219 50.703125-85.113282-26.246093 1.386719-50.265625 12.085938-68.515625 29.046876zm0 0" fill="#a0391e"/><path d="m364.863281 240.664062h-235.933593c-4.984376 0-9.019532-4.039062-9.019532-9.019531s4.035156-9.015625 9.019532-9.015625h235.933593c4.980469 0 9.015625 4.035156 9.015625 9.015625s-4.035156 9.019531-9.015625 9.019531zm0 0" fill="#ebeaec"/><path d="m179.285156 231.644531c0-4.980469 4.035156-9.015625 9.019532-9.015625h-59.375c-4.984376 0-9.019532 4.035156-9.019532 9.015625s4.035156 9.019531 9.019532 9.019531h59.375c-4.984376 0-9.019532-4.039062-9.019532-9.019531zm0 0" fill="#dad9dd"/><path d="m259.894531 57.683594c-4.121093-.472656-8.3125-.71875-12.558593-.71875-4.5625 0-9.054688.28125-13.46875.828125-2.855469.351562-5.007813 2.757812-5.007813 5.632812v123.128907h36.074219v-123.234376c-.003906-2.886718-2.171875-5.304687-5.039063-5.636718zm0 0" fill="#ccccce"/><path d="m246.894531 139.046875c-9.960937 0-18.035156-8.078125-18.035156-18.039063v65.546876h36.070313v-65.546876c0 9.960938-8.074219 18.039063-18.035157 18.039063zm0 0" fill="#bfbfbf"/><path d="m357.496094 186.554688h-221.203125c-4.066407 0-7.367188 3.300781-7.367188 7.367187v28.707031h92.738281c6.851563 0 12.125 6.050782 11.191407 12.835938l-4.121094 29.867187c-.203125 1.472657.179687 2.96875 1.070313 4.160157l12.101562 16.246093c2.265625 3.042969 6.828125 3.042969 9.09375 0l12.046875-16.171875c.921875-1.238281 1.300781-2.792968 1.050781-4.3125l-4.882812-29.488281c-1.140625-6.878906 4.167968-13.136719 11.144531-13.136719h94.503906v-28.707031c0-4.066406-3.296875-7.367187-7.367187-7.367187zm0 0" fill="#dad9dd"/><path d="m172.410156 204.589844c0-9.960938 8.074219-18.035156 18.035156-18.035156h-54.152343c-4.066407 0-7.363281 3.300781-7.363281 7.367187v28.707031h61.515624c-9.960937 0-18.035156-8.078125-18.035156-18.039062zm0 0" fill="#bfbfbf"/><path d="m399.597656 1.210938c-1.921875-2.589844-6-.675782-5.203125 2.449218 5.824219 22.851563 5.660157 64.472656-62.972656 82.929688l28.308594 46.425781s100.644531-49.90625 39.867187-131.804687zm0 0" fill="#ebeaec"/><path d="m371.503906 68.710938c-9.625 6.996093-22.636718 13.1875-40.085937 17.878906l28.3125 46.425781s24.222656-12.015625 41.726562-33.921875c-19.441406 10.121094-40.300781-11.179688-29.953125-30.382812zm0 0" fill="#dad9dd"/><path d="m94.191406 1.210938c1.921875-2.589844 6-.675782 5.207032 2.449218-5.828126 22.851563-5.664063 64.472656 62.96875 82.929688l-28.308594 46.425781s-100.644532-49.90625-39.867188-131.804687zm0 0" fill="#ebeaec"/><path d="m122.285156 68.710938c9.625 6.996093 22.636719 13.1875 40.085938 17.878906l-28.3125 46.425781s-24.222656-12.015625-41.726563-33.921875c19.441407 10.121094 40.304688-11.179688 29.953125-30.382812zm0 0" fill="#dad9dd"/><g fill="#ebeaec"><path d="m246.894531 87.609375c-3.753906 0-6.679687-3.070313-6.679687-6.683594 0-4.257812 3.933594-7.363281 7.988281-6.542969 3.222656.664063 5.371094 3.4375 5.371094 6.542969 0 3.703125-3.007813 6.683594-6.679688 6.683594zm0 0"/><path d="m246.894531 125.503906c-3.753906 0-6.679687-3.070312-6.679687-6.679687 0-4.261719 3.933594-7.363281 7.988281-6.546875 3.222656.664062 5.371094 3.441406 5.371094 6.546875 0 3.703125-3.003907 6.679687-6.679688 6.679687zm0 0"/><path d="m246.894531 163.398438c-3.753906 0-6.679687-3.066407-6.679687-6.679688 0-4.257812 3.933594-7.363281 7.988281-6.546875 3.222656.667969 5.371094 3.441406 5.371094 6.546875 0 3.703125-3.007813 6.679688-6.679688 6.679688zm0 0"/><path d="m322.058594 211.046875c-3.757813 0-6.683594-3.066406-6.683594-6.679687 0-4.257813 3.933594-7.363282 7.992188-6.546876 3.222656.667969 5.371093 3.441407 5.371093 6.546876 0 3.703124-3.007812 6.679687-6.679687 6.679687zm0 0"/><path d="m284.160156 211.046875c-3.753906 0-6.679687-3.066406-6.679687-6.679687 0-4.257813 3.933593-7.363282 7.988281-6.546876 3.222656.667969 5.371094 3.441407 5.371094 6.546876 0 3.703124-3.003906 6.679687-6.679688 6.679687zm0 0"/><path d="m246.265625 211.046875c-3.753906 0-6.679687-3.066406-6.679687-6.679687 0-4.257813 3.933593-7.363282 7.988281-6.546876 3.222656.667969 5.371093 3.441407 5.371093 6.546876 0 3.703124-3.007812 6.679687-6.679687 6.679687zm0 0"/><path d="m208.371094 211.046875c-3.757813 0-6.679688-3.066406-6.679688-6.679687 0-4.257813 3.929688-7.363282 7.988282-6.546876 3.222656.667969 5.371093 3.441407 5.371093 6.546876 0 3.703124-3.007812 6.679687-6.679687 6.679687zm0 0"/><path d="m170.476562 211.046875c-3.757812 0-6.683593-3.066406-6.683593-6.679687 0-4.257813 3.933593-7.363282 7.992187-6.546876 3.222656.667969 5.371094 3.441407 5.371094 6.546876 0 3.703124-3.007812 6.679687-6.679688 6.679687zm0 0"/></g><path d="m354.042969 145.417969c-3.042969 0-6.007813-1.539063-7.707031-4.324219l-28.3125-46.425781c-2.589844-4.25-1.246094-9.800781 3.007812-12.394531 4.25-2.59375 9.800781-1.246094 12.390625 3.003906l28.3125 46.425781c2.59375 4.253906 1.246094 9.800781-3.003906 12.394531-1.464844.894532-3.085938 1.320313-4.6875 1.320313zm0 0" fill="#a0391e"/><path d="m338.230469 110.476562c3.171875-1.933593 6.925781-2.082031 10.105469-.742187l-14.914063-24.457031c-2.589844-4.25-8.140625-5.597656-12.390625-3.003906-4.253906 2.59375-5.597656 8.140624-3.007812 12.394531l14.917968 24.460937c.265625-3.445312 2.117188-6.714844 5.289063-8.652344zm0 0" fill="#84260d"/><path d="m139.746094 145.417969c3.042968 0 6.007812-1.539063 7.707031-4.324219l28.3125-46.425781c2.59375-4.25 1.246094-9.800781-3.003906-12.394531-4.253907-2.59375-9.804688-1.246094-12.394531 3.003906l-28.3125 46.425781c-2.59375 4.253906-1.246094 9.800781 3.003906 12.394531 1.46875.894532 3.089844 1.320313 4.6875 1.320313zm0 0" fill="#a0391e"/><path d="m151.605469 117.289062c-3.34375-2.039062-5.15625-5.625-5.105469-9.277343l-14.445312 23.691406c-2.59375 4.25-1.246094 9.800781 3.003906 12.394531 4.234375 2.582032 9.792968 1.265625 12.394531-3.003906l14.179687-23.253906c-3.402343 1.574218-7.09375 1.238281-10.027343-.550782zm0 0" fill="#84260d"/></svg>